<?xml version="1.0" encoding="UTF-8" standalone="no"?> <!-- Created with Vectornator for iOS (http://vectornator.io/) --><!DOCTYPE svg PUBLIC "-//W3C//DTD SVG 1.1//EN" "http://www.w3.org/Graphics/SVG/1.1/DTD/svg11.dtd">
<svg height="100%" style="fill-rule:evenodd;clip-rule:evenodd;stroke-linecap:round;stroke-linejoin:round;" xmlns:xlink="http://www.w3.org/1999/xlink" xmlns="http://www.w3.org/2000/svg" xml:space="preserve" width="100%" xmlns:vectornator="http://vectornator.io" version="1.1" viewBox="0 0 1024 1024">
<metadata>
<vectornator:setting key="DimensionsVisible" value="1"/>
<vectornator:setting key="SnapToGrid" value="0"/>
<vectornator:setting key="SnapToPoints" value="0"/>
<vectornator:setting key="GuidesVisible" value="1"/>
<vectornator:setting key="RulersVisible" value="1"/>
<vectornator:setting key="SnapToEdges" value="0"/>
<vectornator:setting key="DisplayWhiteBackground" value="0"/>
<vectornator:setting key="SnapToGuides" value="1"/>
<vectornator:setting key="GridSpacing" value="36"/>
<vectornator:setting key="Units" value="Pixels"/>
<vectornator:setting key="DynamicGuides" value="0"/>
<vectornator:setting key="New" value="1"/>
</metadata>
<defs/>
<g id="Layer 1" vectornator:layerName="Layer 1">
<g opacity="1" vectornator:blendMode="Darken">
<path d="M455.137+491.491C455.105+491.773+455.043+492.446+454.949+493.512C454.917+494.076+454.792+494.499+454.573+494.781C454.416+494.875+454.15+494.922+453.774+494.922C452.74+494.922+451.455+494.655+449.92+494.123C448.259+493.621+447.131+493.026+446.536+492.337C446.285+492.055+446.034+491.115+445.784+489.517C445.439+487.417+445.047+485.678+444.609+484.3C443.418+484.456+441.679+484.887+439.392+485.592C437.104+486.297+435.616+486.885+434.927+487.355C434.457+488.702+433.83+490.363+433.047+492.337C432.953+492.775+432.851+493.191+432.741+493.582C432.631+493.974+432.357+494.295+431.919+494.546C431.825+494.608+431.684+494.64+431.496+494.64C430.744+494.64+429.482+494.248+427.712+493.465C425.942+492.681+425.025+492.164+424.963+491.914C424.837+491.475+425.135+490.394+425.856+488.671C426.858+486.164+427.438+484.629+427.595+484.065C426.937+483.407+426.608+482.749+426.608+482.091C426.608+481.934+426.623+481.762+426.655+481.574C426.717+481.198+427.673+480.524+429.522+479.553L435.585+458.826C435.679+458.45+435.694+457.76+435.632+456.758C435.569+455.912+435.663+455.379+435.914+455.16C436.07+455.003+436.446+454.925+437.042+454.925C438.514+454.925+440.614+455.301+443.34+456.053C446.066+456.805+447.695+457.478+448.228+458.074C448.416+461.552+449.121+466.769+450.343+473.725C451.909+482.31+453.507+488.232+455.137+491.491ZM442.87+477.203C442.462+475.229+442.212+473.928+442.118+473.302C441.773+471.202+441.538+469.025+441.413+466.769C440.786+468.304+440.05+470.435+439.204+473.161C438.295+476.012+437.809+477.798+437.747+478.519C438.342+478.268+440.05+477.829+442.87+477.203Z" opacity="1" fill="#000000"/>
<path d="M475.164+459.343C475.101+459.844+474.882+460.377+474.506+460.941C474.036+461.599+473.503+461.959+472.908+462.022C472.689+462.053+472.407+461.998+472.062+461.857C471.717+461.716+471.451+461.646+471.263+461.646C470.699+461.646+469.352+462.1+467.221+463.009C464.902+463.98+463.226+464.873+462.192+465.688L462.192+474.289C462.349+474.226+463.085+473.787+464.401+472.973C465.278+472.44+465.983+472.158+466.516+472.127C467.08+472.095+468.13+472.973+469.665+474.759C471.2+476.545+471.937+477.735+471.874+478.331C471.811+478.895+471.498+479.459+470.934+480.023C470.495+480.461+470.057+480.743+469.618+480.869C469.43+480.931+469.179+480.892+468.866+480.751C468.553+480.61+468.333+480.54+468.208+480.54C468.114+480.54+468.02+480.571+467.926+480.634C467.017+481.01+466.218+481.354+465.529+481.668C463.806+482.451+462.693+483.093+462.192+483.595L462.192+490.457C462.192+490.739+462.357+491.076+462.686+491.467C463.015+491.859+463.179+492.274+463.179+492.713C463.116+494.467+462.286+495.517+460.688+495.862C458.933+495.047+457.445+494.154+456.223+493.183C454.876+492.086+454.202+491.13+454.202+490.316L454.202+459.249C454.202+458.747+454.022+458.238+453.662+457.721C453.301+457.204+453.152+456.82+453.215+456.57C453.309+456.068+453.607+455.591+454.108+455.136C454.609+454.682+455.173+454.423+455.8+454.361C456.082+454.329+456.944+454.776+458.385+455.7C459.826+456.625+460.782+457.134+461.252+457.228L466.422+455.113C466.829+454.799+467.534+454.439+468.537+454.032C469.32+453.938+470.636+454.635+472.485+456.123C474.334+457.612+475.227+458.685+475.164+459.343Z" opacity="1" fill="#000000"/>
<path d="M499.798+487.825C500.08+488.357+499.523+489.666+498.129+491.749C496.735+493.833+495.568+494.859+494.628+494.828C493.625+494.796+492.826+494.264+492.231+493.23C492.137+492.916+491.902+492.462+491.526+491.867L481.609+482.608L481.609+491.303C481.609+491.647+481.742+492.086+482.008+492.619C482.274+493.151+482.408+493.543+482.408+493.794C482.408+494.734+481.797+495.251+480.575+495.345C479.635+495.439+478.24+495.266+476.392+494.828C474.386+494.389+473.384+493.919+473.384+493.418C473.384+493.261+473.423+493.05+473.501+492.783C473.579+492.517+473.619+492.18+473.619+491.773L473.619+458.967C473.619+458.747+473.572+458.552+473.478+458.379C473.384+458.207+473.337+458.074+473.337+457.98C473.368+457.134+473.995+456.632+475.217+456.476C475.593+456.413+476.446+456.562+477.778+456.922C479.11+457.283+480.058+457.447+480.622+457.416C481.154+457.384+482.243+456.954+483.888+456.123C485.533+455.293+486.967+454.878+488.189+454.878C488.659+454.878+489.144+454.925+489.646+455.019C490.523+455.207+491.322+455.614+492.043+456.241C492.763+456.867+493.453+457.494+494.111+458.121C495.834+459.75+496.727+460.612+496.79+460.706C497.604+461.646+498.043+462.695+498.106+463.855C498.294+467.489+495.192+472.158+488.8+477.861C490.116+479.051+493.014+481.95+497.495+486.556C497.777+486.65+498.184+486.838+498.717+487.12C499.03+487.276+499.39+487.511+499.798+487.825ZM489.411+461.552C487.938+461.552+485.337+463.087+481.609+466.158L481.609+473.349C482.956+472.816+484.726+471.202+486.92+468.508C489.113+465.813+490.21+463.808+490.21+462.492C490.21+461.865+489.943+461.552+489.411+461.552Z" opacity="1" fill="#000000"/>
<path d="M513.245+494.828C512.587+494.89+511.851+494.804+511.036+494.569C510.221+494.334+509.422+494.091+508.639+493.841C507.699+493.59+506.226+493.136+504.221+492.478C501.714+491.381+499.819+489.219+498.534+485.992C497.406+483.14+496.842+479.694+496.842+475.652C496.842+472.362+497.406+468.523+498.534+464.137C500.069+458.246+502.059+455.301+504.503+455.301C504.722+455.301+505.028+455.356+505.419+455.465C505.811+455.575+506.117+455.645+506.336+455.677C508.655+455.019+510.143+454.69+510.801+454.69C511.114+454.69+511.428+454.705+511.741+454.737C515.501+455.207+518.462+457.557+520.624+461.787C522.567+465.609+523.538+470.168+523.538+475.464C523.538+480.477+522.661+484.785+520.906+488.389C519.026+492.305+516.472+494.452+513.245+494.828ZM512.399+460.377C511.71+460.189+511.028+461.113+510.354+463.15C509.681+465.186+508.999+466.205+508.31+466.205C508.153+466.205+507.926+466.119+507.628+465.946C507.331+465.774+507.088+465.672+506.9+465.641C505.835+467.991+505.302+471.343+505.302+475.699C505.302+479.114+505.662+482.044+506.383+484.488C507.198+487.214+508.326+488.718+509.767+489C511.459+489.313+512.822+487.574+513.856+483.783C514.765+480.461+515.219+476.513+515.219+471.939C515.219+468.837+514.984+466.236+514.514+464.137C514.013+461.881+513.308+460.627+512.399+460.377Z" opacity="1" fill="#000000"/>
<path d="M541.121+479.083C540.683+479.239+540.166+479.302+539.57+479.271C539.351+479.271+538.889+479.177+538.184+478.989C537.479+478.801+536.891+478.707+536.421+478.707L529.23+478.707C528.886+478.707+528.478+478.871+528.008+479.2C527.538+479.529+527.131+479.678+526.786+479.647C526.16+479.584+525.658+479.232+525.282+478.589C524.906+477.947+524.546+477.312+524.201+476.686C523.857+476.247+523.504+475.785+523.144+475.299C522.784+474.814+522.603+474.43+522.603+474.148C522.572+473.584+522.744+473.067+523.12+472.597C523.496+472.127+523.919+471.845+524.389+471.751C524.985+471.782+525.987+471.798+527.397+471.798C528.588+471.704+529.763+471.625+530.922+471.563C533.429+471.406+535.419+471.328+536.891+471.328C538.646+471.328+539.664+471.437+539.946+471.657C540.51+472.095+541.012+473.004+541.45+474.383C541.826+475.636+542.014+476.717+542.014+477.626C542.014+478.346+541.717+478.832+541.121+479.083Z" opacity="1" fill="#000000"/>
<path d="M565.003+476.498C565.065+476.968+565.097+477.438+565.097+477.908C565.097+480.508+563.984+483.313+561.76+486.321C559.974+488.733+557.78+490.895+555.18+492.807C552.798+494.53+551.185+495.329+550.339+495.204C549.399+495.078+547.738+494.381+545.357+493.112C542.975+491.843+541.691+490.974+541.503+490.504C541.44+490.378+541.409+490.237+541.409+490.081C541.409+489.893+541.464+489.65+541.573+489.352C541.683+489.055+541.738+488.827+541.738+488.671L541.738+458.215C541.738+457.713+542.427+457.463+543.806+457.463C544.432+457.463+544.981+457.525+545.451+457.651C546.923+456.711+548.78+455.873+551.02+455.136C553.261+454.4+555.18+454.032+556.778+454.032C557.718+454.032+558.446+454.165+558.963+454.431C559.48+454.698+559.958+455.16+560.397+455.818C560.961+456.726+561.352+457.29+561.572+457.51C561.634+457.572+562.151+457.995+563.123+458.779C563.687+459.249+564.047+459.75+564.204+460.283C564.329+460.659+564.392+461.066+564.392+461.505C564.392+463.98+562.747+466.675+559.457+469.589C562.809+472.127+564.658+474.43+565.003+476.498ZM556.778+461.223C556.715+461.097+556.543+461.035+556.261+461.035C555.54+461.035+554.412+461.411+552.877+462.163C551.341+462.915+550.307+463.635+549.775+464.325L549.775+469.213C551.78+467.615+553.511+465.985+554.968+464.325C556.425+462.664+557.028+461.63+556.778+461.223ZM558.47+475.135C557.655+475.166+556.276+475.558+554.334+476.31C552.234+477.156+550.715+477.986+549.775+478.801L549.775+487.543C551.811+486.979+553.817+485.255+555.791+482.373C557.765+479.49+558.658+477.077+558.47+475.135Z" opacity="1" fill="#000000"/>
<path d="M585.218+487.919C584.842+489.391+584.247+490.284+583.432+490.598C583.182+490.692+582.845+490.707+582.422+490.645C581.999+490.582+581.693+490.598+581.505+490.692L574.549+493.606C574.33+493.7+574.103+493.966+573.868+494.405C573.633+494.843+573.406+495.094+573.186+495.157C572.497+495.407+571.04+495.172+568.815+494.452C566.591+493.731+565.243+493.057+564.773+492.431C564.429+491.929+564.319+491.146+564.444+490.081C564.507+489.579+564.538+489.188+564.538+488.906L564.538+457.322C564.476+457.008+564.35+456.742+564.162+456.523C563.974+456.303+563.88+456.115+563.88+455.959C563.943+455.363+564.491+454.925+565.525+454.643C566.183+454.486+567.609+454.721+569.802+455.348C572.278+456.068+573.531+456.914+573.562+457.886C573.562+458.136+573.39+458.512+573.045+459.014C572.701+459.515+572.528+459.891+572.528+460.142L572.528+486.133L577.416+484.018C577.698+483.767+578.231+483.485+579.014+483.172C579.453+483.109+580.628+483.775+582.539+485.169C584.451+486.564+585.344+487.48+585.218+487.919Z" opacity="1" fill="#000000"/>
<path d="M597.491+494.828C596.833+494.89+596.096+494.804+595.282+494.569C594.467+494.334+593.668+494.091+592.885+493.841C591.945+493.59+590.472+493.136+588.467+492.478C585.96+491.381+584.064+489.219+582.78+485.992C581.652+483.14+581.088+479.694+581.088+475.652C581.088+472.362+581.652+468.523+582.78+464.137C584.315+458.246+586.305+455.301+588.749+455.301C588.968+455.301+589.274+455.356+589.665+455.465C590.057+455.575+590.362+455.645+590.582+455.677C592.9+455.019+594.389+454.69+595.047+454.69C595.36+454.69+595.673+454.705+595.987+454.737C599.747+455.207+602.708+457.557+604.87+461.787C606.812+465.609+607.784+470.168+607.784+475.464C607.784+480.477+606.906+484.785+605.152+488.389C603.272+492.305+600.718+494.452+597.491+494.828ZM596.645+460.377C595.955+460.189+595.274+461.113+594.6+463.15C593.927+465.186+593.245+466.205+592.556+466.205C592.399+466.205+592.172+466.119+591.874+465.946C591.577+465.774+591.334+465.672+591.146+465.641C590.08+467.991+589.548+471.343+589.548+475.699C589.548+479.114+589.908+482.044+590.629+484.488C591.443+487.214+592.571+488.718+594.013+489C595.705+489.313+597.068+487.574+598.102+483.783C599.01+480.461+599.465+476.513+599.465+471.939C599.465+468.837+599.23+466.236+598.76+464.137C598.258+461.881+597.553+460.627+596.645+460.377Z" opacity="1" fill="#000000"/>
<path d="M631.289+484.206C631.195+484.989+630.897+485.616+630.396+486.086C629.487+488.028+628.093+489.987+626.213+491.961C624.176+494.06+622.531+495.11+621.278+495.11C621.09+495.11+620.918+495.094+620.761+495.063C619.382+494.624+617.831+494.076+616.108+493.418C613.037+492.164+610.687+489.767+609.058+486.227C607.617+483.031+606.896+479.318+606.896+475.088C606.896+469.918+607.883+465.359+609.857+461.411C611.956+457.212+614.588+455.034+617.753+454.878C618.975+454.815+620.769+455.442+623.135+456.758C625.5+458.074+627.059+459.382+627.811+460.682C628.563+461.983+629.08+464.826+629.362+469.213C629.425+470.153+629.299+471.108+628.986+472.08C628.61+473.239+628.124+473.772+627.529+473.678C626.432+473.521+625.054+473.176+623.393+472.644C621.388+471.986+620.307+471.437+620.15+470.999C620.087+470.842+620.056+470.701+620.056+470.576C620.056+470.294+620.189+469.941+620.456+469.518C620.722+469.095+620.855+468.743+620.855+468.461C621.012+467.176+621.09+465.97+621.09+464.842C621.09+463.212+620.902+462.084+620.526+461.458C618.646+462.836+617.22+465.139+616.249+468.367C615.434+471.093+615.027+474.179+615.027+477.626C615.027+480.289+615.262+482.663+615.732+484.746C616.202+486.83+616.766+488.091+617.424+488.53C617.737+488.718+618.607+488.083+620.033+486.626C621.458+485.169+622.375+484.002+622.782+483.125C622.813+483.093+622.954+482.592+623.205+481.621C623.393+481.057+623.644+480.712+623.957+480.587C624.49+480.399+625.861+480.845+628.07+481.926C630.279+483.007+631.352+483.767+631.289+484.206Z" opacity="1" fill="#000000"/>
<path d="M655.124+486.932C655.218+487.715+654.685+489.188+653.526+491.35C652.304+493.606+651.301+494.687+650.518+494.593C649.578+494.467+647.588+492.603+644.549+489C641.165+484.958+639.081+482.67+638.298+482.138L638.298+490.786C638.298+490.974+638.392+491.303+638.58+491.773C638.768+492.243+638.877+492.587+638.909+492.807C639.065+494.06+638.799+494.875+638.11+495.251C637.796+495.439+637.279+495.533+636.559+495.533C635.18+495.533+633.833+495.266+632.517+494.734C631.044+494.138+630.308+493.449+630.308+492.666L630.308+458.262C630.308+457.666+630.511+457.001+630.919+456.264C631.326+455.528+631.78+455.066+632.282+454.878C632.376+454.846+632.517+454.831+632.705+454.831C633.613+454.831+634.906+455.175+636.582+455.865C638.258+456.554+639.175+457.134+639.332+457.604C639.394+457.823+639.238+458.967+638.862+461.035C638.454+463.385+638.251+465.171+638.251+466.393C638.251+466.8+638.266+467.16+638.298+467.474L646.382+455.066C646.852+454.345+647.447+454+648.168+454.032C648.951+454.063+650.11+454.564+651.646+455.536C653.369+456.664+654.246+457.729+654.278+458.732C654.278+459.014+653.024+460.768+650.518+463.996C647.353+468.006+644.878+471.547+643.092+474.618L652.586+485.522C652.805+485.772+653.306+485.976+654.09+486.133C654.748+486.289+655.092+486.556+655.124+486.932Z" opacity="1" fill="#000000"/>
</g>
</g>
</svg>
